PathFileType	4	(X/Y/Z)	15_2_63_p1_0-559.trc
DataRate	CameraRate	NumFrames	NumMarkers	Units	OrigDataRate	OrigDataStartFrame	OrigNumFrames
59.0	59.0	4	27	m	59.0	0	560
Frame#	Time	RHip			RKnee			RAnkle			RBigToe			RSmallToe			RHeel			LHip			LKnee			LAnkle			LBigToe			LSmallToe			LHeel			Neck			Head			Nose			RShoulder			RElbow			RWrist			RThumb			RIndex			RPinky			LShoulder			LElbow			LWrist			LThumb			LIndex			LPinky			
		X1	Y1	Z1	X2	Y2	Z2	X3	Y3	Z3	X4	Y4	Z4	X5	Y5	Z5	X6	Y6	Z6	X7	Y7	Z7	X8	Y8	Z8	X9	Y9	Z9	X10	Y10	Z10	X11	Y11	Z11	X12	Y12	Z12	X13	Y13	Z13	X14	Y14	Z14	X15	Y15	Z15	X16	Y16	Z16	X17	Y17	Z17	X18	Y18	Z18	X19	Y19	Z19	X20	Y20	Z20	X21	Y21	Z21	X22	Y22	Z22	X23	Y23	Z23	X24	Y24	Z24	X25	Y25	Z25	X26	Y26	Z26	X27	Y27	Z27	
0	0.0	0.22067750358310811	0.30518822566061715	1.0843394585079793	0.2287388900746762	0.26074520750613905	1.5164611794089347	0.24086486955376177	0.20233796603600737	1.9491767083413745	0.23379562092722686	0.009824058576196202	1.891221787254172	0.29053544941623805	0.04456745619377576	1.9033962049443707	0.23870256449193714	0.2487792904099065	2.032300671554922	0.021031539884624664	0.3556841932548856	1.12828778532357	0.05844544750254871	0.2921938481803789	1.519433442048165	0.07420033118191481	0.21345560093139287	1.9715084709522495	0.08969907514725638	0.034995663664916465	1.9044414877706044	0.04229147931801402	0.07015781241045857	1.9261422362735576	0.08468596378729955	0.2391848265703347	2.0191709306548358	0.090831007857582	0.4058609369924299	0.5086892670184558	0.0846495771886622	0.3979348707050663	0.2641715560185418	0.09284674527391341	0.3177536819099548	0.3799524800112625	0.2403331464618456	0.38672178649961236	0.5876136976009777	0.28577039882252697	0.28846359905949914	0.8350551729989565	0.17527380068687984	0.13085315236842132	0.9976454191371625	0.14793116389788855	0.0981679579384075	1.1137539172826179	0.13234525025990926	0.14243949314424958	1.1496029601876852	0.1296757925718108	0.1714910044175659	1.1444165278564713	-0.050920260648285184	0.4064571327511786	0.6105392739209314	-0.05913245055653288	0.3250389149734087	0.8629569963394796	0.0701276272329493	0.15650811201345002	0.999625389133295	0.171597168287108	0.0964514788623655	1.0484971794807902	0.17175425161256497	0.0969477828234832	1.0872896659766367	0.10640478897899913	0.12793984769116412	1.1106878773996105
1	0.01694915254237288	0.22576693925049907	0.3155051772259695	1.0943677232969078	0.2292762803295341	0.25924382579309185	1.5209461875744401	0.2407647178554516	0.20232275288148016	1.9494983254130553	0.2285022660108268	0.00045285243329538493	1.876443390646016	0.2859062793686187	0.03490323277001284	1.8939457801903523	0.23879049342868502	0.24884129143443706	2.0325103202360326	0.020989103252013773	0.35544211986919927	1.1280306519065202	0.059214445018307096	0.2897441263208849	1.532300121710844	0.07423946226814142	0.21366439001519635	1.971475108605901	0.08466740306039797	0.03320264995750616	1.9029984994511788	0.04212295377403883	0.07012337321251108	1.926260536984785	0.08497620628877704	0.2401587230095695	2.018868956237627	0.09505526114197885	0.40751175272381046	0.5086092596620982	0.08493574427600958	0.3976526680456605	0.26404828588628604	0.08860378717282154	0.3171585281059951	0.37682472500483555	0.24022947037649506	0.38691812912701173	0.5876095457723235	0.2890758765322764	0.2756697513239564	0.8321894104699834	0.17512901894906677	0.13050278471499457	0.9978651838282486	0.15130655470583274	0.09794117565879594	1.11325391950551	0.14194042786274066	0.1288557808898855	1.1456929387979542	0.1285401710919862	0.17086971452364566	1.146568821292549	-0.05084974027809674	0.4073921250512022	0.6072342880758448	-0.059319573493300214	0.3249268743162317	0.8627753444402348	0.06964722273254075	0.15643726199282632	0.9996615900404969	0.17150703835363806	0.09647303570645852	1.048128420931985	0.1719372638372006	0.09962960080929563	1.0807304208368738	0.10726264118311644	0.12536196368590236	1.122010472147317
2	0.03389830508474576	0.2255748119713945	0.31547923992032806	1.0947708774665934	0.2238175121121391	0.24852967262934905	1.5087642007518949	0.23761953446861364	0.2158938822519628	1.9624863459209165	0.2293372996885996	0.0014350016439698948	1.872402987987795	0.2859301637317245	0.034991275892430375	1.894007688336279	0.23878713039817268	0.24902928804591934	2.0325803787613177	0.02115013325294287	0.35577028073562217	1.1288239731684777	0.059234765851332465	0.2896192718111282	1.5323366115545642	0.07422488396712285	0.21352709416586932	1.9713749289468443	0.08467875674948497	0.033083058239281565	1.902959371926146	0.042116980848492996	0.06999681034775901	1.926170906534632	0.08492091597738538	0.24002000257166461	2.0189932713276146	0.09079655540906889	0.4059217821174791	0.5085507179736732	0.0849555492416481	0.3974642036519675	0.2673761827423765	0.08852078300912694	0.31714488642731875	0.37681800750046	0.24023221175934112	0.38694920993116677	0.5876391621470447	0.28628259423923363	0.28793929377709065	0.83820811794975	0.1750420263041337	0.13072389793883027	0.9980002959327607	0.15075993000134305	0.0883479800805498	1.0994822655914973	0.1399339234676796	0.1208062595953188	1.1384451030600513	0.12843453513408387	0.16954959261222344	1.1496566981911887	-0.05093498895408557	0.40612547744468	0.6104559556250577	-0.05938957022428999	0.3249017754164314	0.8627973921778144	0.06950921719420995	0.15638903668462242	0.9996766242754055	0.1711043728488676	0.09624289159645229	1.0479998277171583	0.17144293835604632	0.09868766474844747	1.0839558021871796	0.1105120500944857	0.13490398082584415	1.1246790729044354
3	0.05084745762711865	0.2212750381481246	0.3044735733115454	1.0889729708684506	0.22375509452404807	0.2484342934288148	1.508615681856286	0.24074418333966896	0.2024678448848507	1.949578493321482	0.22939762230358307	0.0016665258927818776	1.8722792832373942	0.29056145325010907	0.03618956131849403	1.89455135546875	0.2388206441584216	0.24910963217612261	2.032490854149607	0.017655522511092602	0.34485183533541597	1.1234169650800636	0.05822195368714648	0.28939820988765025	1.5268133321544723	0.07422931130403959	0.2136282329635996	1.9712859903002216	0.08110950525335618	0.02351453427041975	1.8937657640748944	0.040821954727555794	0.07013592227551178	1.9207146013791976	0.0849628443298386	0.24020316427425456	2.0190225784408415	0.09077115545619249	0.4059067040390298	0.5085914828080256	0.08481847773521947	0.3972754106916531	0.2673901553260983	0.08846653774418209	0.3167886658819895	0.3766991597248451	0.24029004993795644	0.3868599257447747	0.5878210416125397	0.2862816315151249	0.2879033404542273	0.8383245811788159	0.1745809199441405	0.1295584037023804	1.0009274877124148	0.14858891684759926	0.08753302173254174	1.104810360436416	0.13579916885863427	0.131133295714744	1.1450096042096685	0.12819738126834432	0.16937088663765126	1.149309989338344	-0.05096431488817963	0.4060196364588236	0.6104872397062149	-0.05945616097417156	0.3249427228307812	0.8629080088042043	0.06958179287527548	0.1563759648281988	0.9996743373906192	0.1678359648118645	0.10649706963049317	1.0544774917280026	0.17523443613300912	0.10618242984257113	1.0926417298928575	0.10670472218611728	0.1262272596892285	1.1194464489639782
